<svg xmlns="http://www.w3.org/2000/svg" width="100%" height="100%" viewBox="0 0 1100 550"><style>text {font-family: "Arial"; font-size: 20px; fill: blue;}#map {fill: #eee; stroke: black;} circle {fill: gray;}polygon, circle {stroke: black; stroke-width: 0.02px;}</style><g transform="translate(100)"><text y="35">section 02 -- &#xE9;quipe 4546 -- L&#xE9;opard</text><text y="530">AIRE: 1210 pouces carr&#xE9;s</text><rect id="map" y="50" width="900" height="450" /><g transform="translate(100,425) scale(100,-100)"><polygon fill="forestgreen" points="1,1 3,1 6,2 7,3 1,3 0,2 " /><g id="row" y="0"><rect id="square" x="0" width="0.1" height="0.1" transform="translate(-0.05,-0.05)" /><use href="#square" x="1" /><use href="#square" x="2" /><use href="#square" x="3" /><use href="#square" x="4" /><use href="#square" x="5" /><use href="#square" x="6" /><use href="#square" x="7" /></g><use href="#row" y="1" /><use href="#row" y="2" /><use href="#row" y="3" /><use href="#square" fill="red" /><circle cx="0" cy="2" r="0.15" /><circle cx="1" cy="1" r="0.15" /><circle cx="1" cy="2" r="0.15" /><circle cx="1" cy="3" r="0.15" /><circle cx="3" cy="1" r="0.15" /><circle cx="4" cy="2" r="0.15" /><circle cx="6" cy="2" r="0.15" /><circle cx="7" cy="3" r="0.15" /></g></g></svg>